<mxfile host="Electron" agent="Mozilla/5.0 (Macintosh; Intel Mac OS X 10_15_7) AppleWebKit/537.36 (KHTML, like Gecko) draw.io/28.0.6 Chrome/138.0.7204.100 Electron/37.2.3 Safari/537.36" version="28.0.6">
  <diagram id="whH7GCkUpl5NfA6-QlSd" name="PÃ¡gina-1">
    <mxGraphModel dx="1887" dy="1231" grid="1" gridSize="10" guides="1" tooltips="1" connect="1" arrows="1" fold="1" page="1" pageScale="1" pageWidth="827" pageHeight="1169" math="0" shadow="0">
      <root>
        <mxCell id="0" />
        <mxCell id="1" parent="0" />
        <mxCell id="UdGIB7XVCYvjkzStdqWE-26" value="" style="shape=flexArrow;endArrow=classic;html=1;rounded=0;fillColor=#0000FF;" edge="1" parent="1">
          <mxGeometry width="50" height="50" relative="1" as="geometry">
            <mxPoint x="545.5" y="260" as="sourcePoint" />
            <mxPoint x="605.5" y="260" as="targetPoint" />
          </mxGeometry>
        </mxCell>
        <mxCell id="UdGIB7XVCYvjkzStdqWE-28" value="" style="shape=flexArrow;endArrow=classic;html=1;rounded=0;fillColor=#0000FF;" edge="1" parent="1">
          <mxGeometry width="50" height="50" relative="1" as="geometry">
            <mxPoint x="1021" y="260" as="sourcePoint" />
            <mxPoint x="1081" y="260" as="targetPoint" />
          </mxGeometry>
        </mxCell>
        <mxCell id="UdGIB7XVCYvjkzStdqWE-29" value="Servidor de tiempo: 4:00" style="text;html=1;align=center;verticalAlign=middle;whiteSpace=wrap;rounded=0;fontSize=22;" vertex="1" parent="1">
          <mxGeometry x="230" y="100" width="224" height="30" as="geometry" />
        </mxCell>
        <mxCell id="UdGIB7XVCYvjkzStdqWE-30" value="Servidor de tiempo: 4:00" style="text;html=1;align=center;verticalAlign=middle;whiteSpace=wrap;rounded=0;fontSize=22;" vertex="1" parent="1">
          <mxGeometry x="720" y="100" width="224" height="30" as="geometry" />
        </mxCell>
        <mxCell id="UdGIB7XVCYvjkzStdqWE-31" value="Servidor de tiempo: 4:05" style="text;html=1;align=center;verticalAlign=middle;whiteSpace=wrap;rounded=0;fontSize=22;" vertex="1" parent="1">
          <mxGeometry x="1190" y="100" width="224" height="30" as="geometry" />
        </mxCell>
        <mxCell id="UdGIB7XVCYvjkzStdqWE-1" value="" style="fontColor=#0066CC;verticalAlign=top;verticalLabelPosition=bottom;labelPosition=center;align=center;html=1;outlineConnect=0;fillColor=#CCCCCC;strokeColor=#6881B3;gradientColor=none;gradientDirection=north;strokeWidth=2;shape=mxgraph.networks.pc;" vertex="1" parent="1">
          <mxGeometry x="172" y="280" width="100" height="70" as="geometry" />
        </mxCell>
        <mxCell id="UdGIB7XVCYvjkzStdqWE-3" value="" style="fontColor=#0066CC;verticalAlign=top;verticalLabelPosition=bottom;labelPosition=center;align=center;html=1;outlineConnect=0;fillColor=#CCCCCC;strokeColor=#6881B3;gradientColor=none;gradientDirection=north;strokeWidth=2;shape=mxgraph.networks.pc;" vertex="1" parent="1">
          <mxGeometry x="351" y="280" width="100" height="70" as="geometry" />
        </mxCell>
        <mxCell id="UdGIB7XVCYvjkzStdqWE-4" value="" style="fontColor=#0066CC;verticalAlign=top;verticalLabelPosition=bottom;labelPosition=center;align=center;html=1;outlineConnect=0;fillColor=#CCCCCC;strokeColor=#6881B3;gradientColor=none;gradientDirection=north;strokeWidth=2;shape=mxgraph.networks.pc;" vertex="1" parent="1">
          <mxGeometry x="271" y="148" width="100" height="70" as="geometry" />
        </mxCell>
        <mxCell id="UdGIB7XVCYvjkzStdqWE-5" value="" style="endArrow=none;html=1;rounded=0;strokeWidth=4;strokeColor=#0000ED;" edge="1" parent="1">
          <mxGeometry width="50" height="50" relative="1" as="geometry">
            <mxPoint x="204" y="250" as="sourcePoint" />
            <mxPoint x="454" y="250" as="targetPoint" />
          </mxGeometry>
        </mxCell>
        <mxCell id="UdGIB7XVCYvjkzStdqWE-6" value="" style="endArrow=none;html=1;rounded=0;strokeWidth=4;strokeColor=#0000ED;" edge="1" parent="1">
          <mxGeometry width="50" height="50" relative="1" as="geometry">
            <mxPoint x="413" y="280" as="sourcePoint" />
            <mxPoint x="413" y="250" as="targetPoint" />
          </mxGeometry>
        </mxCell>
        <mxCell id="UdGIB7XVCYvjkzStdqWE-7" value="" style="endArrow=none;html=1;rounded=0;strokeWidth=4;strokeColor=#0000ED;" edge="1" parent="1">
          <mxGeometry width="50" height="50" relative="1" as="geometry">
            <mxPoint x="320.5" y="248" as="sourcePoint" />
            <mxPoint x="320.5" y="218" as="targetPoint" />
          </mxGeometry>
        </mxCell>
        <mxCell id="UdGIB7XVCYvjkzStdqWE-8" value="" style="endArrow=none;html=1;rounded=0;strokeWidth=4;strokeColor=#0000ED;" edge="1" parent="1">
          <mxGeometry width="50" height="50" relative="1" as="geometry">
            <mxPoint x="232" y="280" as="sourcePoint" />
            <mxPoint x="232" y="250" as="targetPoint" />
          </mxGeometry>
        </mxCell>
        <mxCell id="UdGIB7XVCYvjkzStdqWE-32" value="RED" style="text;html=1;align=center;verticalAlign=middle;whiteSpace=wrap;rounded=0;fontSize=22;" vertex="1" parent="1">
          <mxGeometry x="256" y="260" width="120" height="30" as="geometry" />
        </mxCell>
        <mxCell id="UdGIB7XVCYvjkzStdqWE-36" value="" style="endArrow=classic;html=1;rounded=0;exitX=0;exitY=0.5;exitDx=0;exitDy=0;exitPerimeter=0;strokeColor=#FF0000;strokeWidth=2;curved=1;" edge="1" parent="1" source="UdGIB7XVCYvjkzStdqWE-4" target="UdGIB7XVCYvjkzStdqWE-1">
          <mxGeometry width="50" height="50" relative="1" as="geometry">
            <mxPoint x="122" y="460" as="sourcePoint" />
            <mxPoint x="172" y="410" as="targetPoint" />
            <Array as="points">
              <mxPoint x="192" y="190" />
              <mxPoint x="162" y="240" />
            </Array>
          </mxGeometry>
        </mxCell>
        <mxCell id="UdGIB7XVCYvjkzStdqWE-11" value="" style="fontColor=#0066CC;verticalAlign=top;verticalLabelPosition=bottom;labelPosition=center;align=center;html=1;outlineConnect=0;fillColor=#CCCCCC;strokeColor=#6881B3;gradientColor=none;gradientDirection=north;strokeWidth=2;shape=mxgraph.networks.pc;" vertex="1" parent="1">
          <mxGeometry x="662" y="272" width="100" height="70" as="geometry" />
        </mxCell>
        <mxCell id="UdGIB7XVCYvjkzStdqWE-12" value="" style="fontColor=#0066CC;verticalAlign=top;verticalLabelPosition=bottom;labelPosition=center;align=center;html=1;outlineConnect=0;fillColor=#CCCCCC;strokeColor=#6881B3;gradientColor=none;gradientDirection=north;strokeWidth=2;shape=mxgraph.networks.pc;" vertex="1" parent="1">
          <mxGeometry x="841" y="272" width="100" height="70" as="geometry" />
        </mxCell>
        <mxCell id="UdGIB7XVCYvjkzStdqWE-13" value="" style="fontColor=#0066CC;verticalAlign=top;verticalLabelPosition=bottom;labelPosition=center;align=center;html=1;outlineConnect=0;fillColor=#CCCCCC;strokeColor=#6881B3;gradientColor=none;gradientDirection=north;strokeWidth=2;shape=mxgraph.networks.pc;" vertex="1" parent="1">
          <mxGeometry x="761" y="140" width="100" height="70" as="geometry" />
        </mxCell>
        <mxCell id="UdGIB7XVCYvjkzStdqWE-14" value="" style="endArrow=none;html=1;rounded=0;strokeWidth=4;strokeColor=#0000ED;" edge="1" parent="1">
          <mxGeometry width="50" height="50" relative="1" as="geometry">
            <mxPoint x="694" y="242" as="sourcePoint" />
            <mxPoint x="944" y="242" as="targetPoint" />
          </mxGeometry>
        </mxCell>
        <mxCell id="UdGIB7XVCYvjkzStdqWE-15" value="" style="endArrow=none;html=1;rounded=0;strokeWidth=4;strokeColor=#0000ED;" edge="1" parent="1">
          <mxGeometry width="50" height="50" relative="1" as="geometry">
            <mxPoint x="903" y="272" as="sourcePoint" />
            <mxPoint x="903" y="242" as="targetPoint" />
          </mxGeometry>
        </mxCell>
        <mxCell id="UdGIB7XVCYvjkzStdqWE-16" value="" style="endArrow=none;html=1;rounded=0;strokeWidth=4;strokeColor=#0000ED;" edge="1" parent="1">
          <mxGeometry width="50" height="50" relative="1" as="geometry">
            <mxPoint x="810.5" y="240" as="sourcePoint" />
            <mxPoint x="810.5" y="210" as="targetPoint" />
          </mxGeometry>
        </mxCell>
        <mxCell id="UdGIB7XVCYvjkzStdqWE-17" value="" style="endArrow=none;html=1;rounded=0;strokeWidth=4;strokeColor=#0000ED;" edge="1" parent="1">
          <mxGeometry width="50" height="50" relative="1" as="geometry">
            <mxPoint x="722" y="272" as="sourcePoint" />
            <mxPoint x="722" y="242" as="targetPoint" />
          </mxGeometry>
        </mxCell>
        <mxCell id="UdGIB7XVCYvjkzStdqWE-33" value="RED" style="text;html=1;align=center;verticalAlign=middle;whiteSpace=wrap;rounded=0;fontSize=22;" vertex="1" parent="1">
          <mxGeometry x="746" y="250" width="120" height="30" as="geometry" />
        </mxCell>
        <mxCell id="UdGIB7XVCYvjkzStdqWE-19" value="" style="fontColor=#0066CC;verticalAlign=top;verticalLabelPosition=bottom;labelPosition=center;align=center;html=1;outlineConnect=0;fillColor=#CCCCCC;strokeColor=#6881B3;gradientColor=none;gradientDirection=north;strokeWidth=2;shape=mxgraph.networks.pc;" vertex="1" parent="1">
          <mxGeometry x="1132" y="272" width="100" height="70" as="geometry" />
        </mxCell>
        <mxCell id="UdGIB7XVCYvjkzStdqWE-20" value="" style="fontColor=#0066CC;verticalAlign=top;verticalLabelPosition=bottom;labelPosition=center;align=center;html=1;outlineConnect=0;fillColor=#CCCCCC;strokeColor=#6881B3;gradientColor=none;gradientDirection=north;strokeWidth=2;shape=mxgraph.networks.pc;" vertex="1" parent="1">
          <mxGeometry x="1311" y="272" width="100" height="70" as="geometry" />
        </mxCell>
        <mxCell id="UdGIB7XVCYvjkzStdqWE-21" value="" style="fontColor=#0066CC;verticalAlign=top;verticalLabelPosition=bottom;labelPosition=center;align=center;html=1;outlineConnect=0;fillColor=#CCCCCC;strokeColor=#6881B3;gradientColor=none;gradientDirection=north;strokeWidth=2;shape=mxgraph.networks.pc;" vertex="1" parent="1">
          <mxGeometry x="1231" y="140" width="100" height="70" as="geometry" />
        </mxCell>
        <mxCell id="UdGIB7XVCYvjkzStdqWE-22" value="" style="endArrow=none;html=1;rounded=0;strokeWidth=4;strokeColor=#0000ED;" edge="1" parent="1">
          <mxGeometry width="50" height="50" relative="1" as="geometry">
            <mxPoint x="1164" y="242" as="sourcePoint" />
            <mxPoint x="1414" y="242" as="targetPoint" />
          </mxGeometry>
        </mxCell>
        <mxCell id="UdGIB7XVCYvjkzStdqWE-23" value="" style="endArrow=none;html=1;rounded=0;strokeWidth=4;strokeColor=#0000ED;" edge="1" parent="1">
          <mxGeometry width="50" height="50" relative="1" as="geometry">
            <mxPoint x="1373" y="272" as="sourcePoint" />
            <mxPoint x="1373" y="242" as="targetPoint" />
          </mxGeometry>
        </mxCell>
        <mxCell id="UdGIB7XVCYvjkzStdqWE-24" value="" style="endArrow=none;html=1;rounded=0;strokeWidth=4;strokeColor=#0000ED;" edge="1" parent="1">
          <mxGeometry width="50" height="50" relative="1" as="geometry">
            <mxPoint x="1280.5" y="240" as="sourcePoint" />
            <mxPoint x="1280.5" y="210" as="targetPoint" />
          </mxGeometry>
        </mxCell>
        <mxCell id="UdGIB7XVCYvjkzStdqWE-25" value="" style="endArrow=none;html=1;rounded=0;strokeWidth=4;strokeColor=#0000ED;" edge="1" parent="1">
          <mxGeometry width="50" height="50" relative="1" as="geometry">
            <mxPoint x="1192" y="272" as="sourcePoint" />
            <mxPoint x="1192" y="242" as="targetPoint" />
          </mxGeometry>
        </mxCell>
        <mxCell id="UdGIB7XVCYvjkzStdqWE-34" value="RED" style="text;html=1;align=center;verticalAlign=middle;whiteSpace=wrap;rounded=0;fontSize=22;" vertex="1" parent="1">
          <mxGeometry x="1216" y="250" width="120" height="30" as="geometry" />
        </mxCell>
        <mxCell id="UdGIB7XVCYvjkzStdqWE-38" value="" style="endArrow=classic;html=1;rounded=0;strokeColor=#FF0000;strokeWidth=2;curved=1;" edge="1" parent="1">
          <mxGeometry width="50" height="50" relative="1" as="geometry">
            <mxPoint x="372" y="170" as="sourcePoint" />
            <mxPoint x="372" y="155" as="targetPoint" />
            <Array as="points">
              <mxPoint x="422" y="178" />
              <mxPoint x="432" y="155" />
            </Array>
          </mxGeometry>
        </mxCell>
        <mxCell id="UdGIB7XVCYvjkzStdqWE-39" value="" style="endArrow=classic;html=1;rounded=0;exitX=1;exitY=0.5;exitDx=0;exitDy=0;exitPerimeter=0;strokeColor=#FF0000;strokeWidth=2;curved=1;entryX=1;entryY=0.07;entryDx=0;entryDy=0;entryPerimeter=0;" edge="1" parent="1" source="UdGIB7XVCYvjkzStdqWE-4" target="UdGIB7XVCYvjkzStdqWE-3">
          <mxGeometry width="50" height="50" relative="1" as="geometry">
            <mxPoint x="331" y="400" as="sourcePoint" />
            <mxPoint x="232" y="497" as="targetPoint" />
            <Array as="points">
              <mxPoint x="432" y="200" />
              <mxPoint x="482" y="230" />
            </Array>
          </mxGeometry>
        </mxCell>
        <mxCell id="UdGIB7XVCYvjkzStdqWE-40" value="" style="endArrow=classic;html=1;rounded=0;exitX=0;exitY=0.5;exitDx=0;exitDy=0;exitPerimeter=0;strokeColor=#FF0000;strokeWidth=2;curved=1;" edge="1" parent="1">
          <mxGeometry width="50" height="50" relative="1" as="geometry">
            <mxPoint x="1230" y="178" as="sourcePoint" />
            <mxPoint x="1153" y="275" as="targetPoint" />
            <Array as="points">
              <mxPoint x="1151" y="185" />
              <mxPoint x="1121" y="235" />
            </Array>
          </mxGeometry>
        </mxCell>
        <mxCell id="UdGIB7XVCYvjkzStdqWE-41" value="" style="endArrow=classic;html=1;rounded=0;strokeColor=#FF0000;strokeWidth=2;curved=1;" edge="1" parent="1">
          <mxGeometry width="50" height="50" relative="1" as="geometry">
            <mxPoint x="1331" y="165" as="sourcePoint" />
            <mxPoint x="1331" y="150" as="targetPoint" />
            <Array as="points">
              <mxPoint x="1381" y="173" />
              <mxPoint x="1391" y="150" />
            </Array>
          </mxGeometry>
        </mxCell>
        <mxCell id="UdGIB7XVCYvjkzStdqWE-42" value="" style="endArrow=classic;html=1;rounded=0;exitX=1;exitY=0.5;exitDx=0;exitDy=0;exitPerimeter=0;strokeColor=#FF0000;strokeWidth=2;curved=1;entryX=1;entryY=0.07;entryDx=0;entryDy=0;entryPerimeter=0;" edge="1" parent="1">
          <mxGeometry width="50" height="50" relative="1" as="geometry">
            <mxPoint x="1330" y="178" as="sourcePoint" />
            <mxPoint x="1410" y="280" as="targetPoint" />
            <Array as="points">
              <mxPoint x="1391" y="195" />
              <mxPoint x="1441" y="225" />
            </Array>
          </mxGeometry>
        </mxCell>
        <mxCell id="UdGIB7XVCYvjkzStdqWE-43" value="" style="endArrow=none;html=1;rounded=0;exitX=0;exitY=0.5;exitDx=0;exitDy=0;exitPerimeter=0;strokeColor=#FF0000;strokeWidth=2;curved=1;startArrow=classic;startFill=1;endFill=0;" edge="1" parent="1">
          <mxGeometry width="50" height="50" relative="1" as="geometry">
            <mxPoint x="760" y="178" as="sourcePoint" />
            <mxPoint x="683" y="275" as="targetPoint" />
            <Array as="points">
              <mxPoint x="681" y="185" />
              <mxPoint x="651" y="235" />
            </Array>
          </mxGeometry>
        </mxCell>
        <mxCell id="UdGIB7XVCYvjkzStdqWE-44" value="" style="endArrow=none;html=1;rounded=0;strokeColor=#FF0000;strokeWidth=2;curved=1;startArrow=classic;startFill=1;endFill=0;" edge="1" parent="1">
          <mxGeometry width="50" height="50" relative="1" as="geometry">
            <mxPoint x="861" y="165" as="sourcePoint" />
            <mxPoint x="861" y="150" as="targetPoint" />
            <Array as="points">
              <mxPoint x="911" y="173" />
              <mxPoint x="921" y="150" />
            </Array>
          </mxGeometry>
        </mxCell>
        <mxCell id="UdGIB7XVCYvjkzStdqWE-45" value="" style="endArrow=none;html=1;rounded=0;exitX=1;exitY=0.5;exitDx=0;exitDy=0;exitPerimeter=0;strokeColor=#FF0000;strokeWidth=2;curved=1;entryX=1;entryY=0.07;entryDx=0;entryDy=0;entryPerimeter=0;endFill=0;startArrow=classic;startFill=1;" edge="1" parent="1">
          <mxGeometry width="50" height="50" relative="1" as="geometry">
            <mxPoint x="860" y="178" as="sourcePoint" />
            <mxPoint x="940" y="280" as="targetPoint" />
            <Array as="points">
              <mxPoint x="921" y="195" />
              <mxPoint x="971" y="225" />
            </Array>
          </mxGeometry>
        </mxCell>
        <mxCell id="UdGIB7XVCYvjkzStdqWE-46" value="4:25" style="text;html=1;align=center;verticalAlign=middle;whiteSpace=wrap;rounded=0;fontSize=22;" vertex="1" parent="1">
          <mxGeometry x="841" y="360" width="120" height="30" as="geometry" />
        </mxCell>
        <mxCell id="UdGIB7XVCYvjkzStdqWE-47" value="3:50" style="text;html=1;align=center;verticalAlign=middle;whiteSpace=wrap;rounded=0;fontSize=22;" vertex="1" parent="1">
          <mxGeometry x="662" y="360" width="120" height="30" as="geometry" />
        </mxCell>
        <mxCell id="UdGIB7XVCYvjkzStdqWE-48" value="4:25" style="text;html=1;align=center;verticalAlign=middle;whiteSpace=wrap;rounded=0;fontSize=22;" vertex="1" parent="1">
          <mxGeometry x="345.5" y="370" width="120" height="30" as="geometry" />
        </mxCell>
        <mxCell id="UdGIB7XVCYvjkzStdqWE-49" value="3:50" style="text;html=1;align=center;verticalAlign=middle;whiteSpace=wrap;rounded=0;fontSize=22;" vertex="1" parent="1">
          <mxGeometry x="166.5" y="370" width="120" height="30" as="geometry" />
        </mxCell>
        <mxCell id="UdGIB7XVCYvjkzStdqWE-50" value="4:05" style="text;html=1;align=center;verticalAlign=middle;whiteSpace=wrap;rounded=0;fontSize=22;" vertex="1" parent="1">
          <mxGeometry x="1311" y="360" width="120" height="30" as="geometry" />
        </mxCell>
        <mxCell id="UdGIB7XVCYvjkzStdqWE-51" value="4:05" style="text;html=1;align=center;verticalAlign=middle;whiteSpace=wrap;rounded=0;fontSize=22;" vertex="1" parent="1">
          <mxGeometry x="1132" y="360" width="120" height="30" as="geometry" />
        </mxCell>
        <mxCell id="UdGIB7XVCYvjkzStdqWE-52" value="4:00" style="text;html=1;align=center;verticalAlign=middle;whiteSpace=wrap;rounded=0;fontSize=22;fontColor=#CC6600;" vertex="1" parent="1">
          <mxGeometry x="130" y="168" width="100" height="30" as="geometry" />
        </mxCell>
        <mxCell id="UdGIB7XVCYvjkzStdqWE-54" value="4:00" style="text;html=1;align=center;verticalAlign=middle;whiteSpace=wrap;rounded=0;fontSize=22;fontColor=#CC6600;" vertex="1" parent="1">
          <mxGeometry x="465.5" y="200" width="80" height="30" as="geometry" />
        </mxCell>
        <mxCell id="UdGIB7XVCYvjkzStdqWE-55" value="4:00" style="text;html=1;align=center;verticalAlign=middle;whiteSpace=wrap;rounded=0;fontSize=22;fontColor=#CC6600;" vertex="1" parent="1">
          <mxGeometry x="422" y="148" width="80" height="30" as="geometry" />
        </mxCell>
        <mxCell id="UdGIB7XVCYvjkzStdqWE-56" value="0" style="text;html=1;align=center;verticalAlign=middle;whiteSpace=wrap;rounded=0;fontSize=22;fontColor=#CC6600;" vertex="1" parent="1">
          <mxGeometry x="901" y="140" width="80" height="30" as="geometry" />
        </mxCell>
        <mxCell id="UdGIB7XVCYvjkzStdqWE-57" value="+25" style="text;html=1;align=center;verticalAlign=middle;whiteSpace=wrap;rounded=0;fontSize=22;fontColor=#CC6600;" vertex="1" parent="1">
          <mxGeometry x="941" y="198" width="80" height="30" as="geometry" />
        </mxCell>
        <mxCell id="UdGIB7XVCYvjkzStdqWE-58" value="-10" style="text;html=1;align=center;verticalAlign=middle;whiteSpace=wrap;rounded=0;fontSize=22;fontColor=#CC6600;" vertex="1" parent="1">
          <mxGeometry x="621" y="160" width="80" height="30" as="geometry" />
        </mxCell>
        <mxCell id="UdGIB7XVCYvjkzStdqWE-60" value="+5" style="text;html=1;align=center;verticalAlign=middle;whiteSpace=wrap;rounded=0;fontSize=22;fontColor=#CC6600;" vertex="1" parent="1">
          <mxGeometry x="1372" y="140" width="80" height="30" as="geometry" />
        </mxCell>
        <mxCell id="UdGIB7XVCYvjkzStdqWE-61" value="-20" style="text;html=1;align=center;verticalAlign=middle;whiteSpace=wrap;rounded=0;fontSize=22;fontColor=#CC6600;" vertex="1" parent="1">
          <mxGeometry x="1411" y="200" width="80" height="30" as="geometry" />
        </mxCell>
        <mxCell id="UdGIB7XVCYvjkzStdqWE-62" value="+15" style="text;html=1;align=center;verticalAlign=middle;whiteSpace=wrap;rounded=0;fontSize=22;fontColor=#CC6600;" vertex="1" parent="1">
          <mxGeometry x="1091" y="160" width="80" height="30" as="geometry" />
        </mxCell>
      </root>
    </mxGraphModel>
  </diagram>
</mxfile>
